HIERARCHY
ROOT Hips
{
	OFFSET -14.64140 90.27770 -84.91600
	CHANNELS 6 Xposition Yposition Zposition Zrotation Xrotation Yrotation
	JOINT Spine
	{
		OFFSET 0.00000 13.20850 -1.60436
		CHANNELS 3 Zrotation Xrotation Yrotation
		JOINT Spine1
		{
			OFFSET 0.00000 8.61716 0.00000
			CHANNELS 3 Zrotation Xrotation Yrotation
			JOINT Spine2
			{
				OFFSET 0.00000 8.61717 0.00000
				CHANNELS 3 Zrotation Xrotation Yrotation
				JOINT Spine3
				{
					OFFSET 0.00000 8.61717 0.00000
					CHANNELS 3 Zrotation Xrotation Yrotation
					JOINT Neck
					{
						OFFSET 0.00000 11.07920 1.10792
						CHANNELS 3 Zrotation Xrotation Yrotation
						JOINT Neck1
						{
							OFFSET 0.00000 7.08032 0.00000
							CHANNELS 3 Zrotation Xrotation Yrotation
							JOINT Head
							{
								OFFSET 0.00000 7.08031 0.00000
								CHANNELS 3 Zrotation Xrotation Yrotation
								End site
								{
									OFFSET 0.00000 0.00000 0.00000
								}
							}
						}
					}
					JOINT RightShoulder
					{
						OFFSET -0.01000 7.91373 5.19711
						CHANNELS 3 Zrotation Xrotation Yrotation
						JOINT RightArm
						{
							OFFSET -18.41580 0.00000 0.00000
							CHANNELS 3 Zrotation Xrotation Yrotation
							JOINT RightForeArm
							{
								OFFSET -29.11090 0.00000 0.00000
								CHANNELS 3 Zrotation Xrotation Yrotation
								JOINT RightHand
								{
									OFFSET -24.65040 0.00000 0.00000
									CHANNELS 3 Zrotation Xrotation Yrotation
									JOINT RightHandThumb1
									{
										OFFSET -5.35114 -0.85590 3.97906
										CHANNELS 3 Zrotation Xrotation Yrotation
										JOINT RightHandThumb2
										{
											OFFSET -4.52789 0.00000 0.00000
											CHANNELS 3 Zrotation Xrotation Yrotation
											JOINT RightHandThumb3
											{
												OFFSET -2.46976 0.00000 0.00000
												CHANNELS 3 Zrotation Xrotation Yrotation
												End site
												{
													OFFSET 0.00000 0.00000 0.00000
												}
											}
										}
									}
									JOINT RightHandIndex1
									{
										OFFSET -14.26970 0.00000 2.88139
										CHANNELS 3 Zrotation Xrotation Yrotation
										JOINT RightHandIndex2
										{
											OFFSET -5.48836 0.00000 0.00000
											CHANNELS 3 Zrotation Xrotation Yrotation
											JOINT RightHandIndex3
											{
												OFFSET -3.01859 0.00000 0.00000
												CHANNELS 3 Zrotation Xrotation Yrotation
												End site
												{
													OFFSET 0.00000 0.00000 0.00000
												}
											}
										}
									}
									JOINT RightHandMiddle1
									{
										OFFSET -14.26970 0.00000 -0.09147
										CHANNELS 3 Zrotation Xrotation Yrotation
										JOINT RightHandMiddle2
										{
											OFFSET -6.17441 0.00000 0.00000
											CHANNELS 3 Zrotation Xrotation Yrotation
											JOINT RightHandMiddle3
											{
												OFFSET -3.56743 0.00000 0.00000
												CHANNELS 3 Zrotation Xrotation Yrotation
												End site
												{
													OFFSET 0.00000 0.00000 0.00000
												}
											}
										}
									}
									JOINT RightHandRing1
									{
										OFFSET -12.69180 0.00000 -3.06433
										CHANNELS 3 Zrotation Xrotation Yrotation
										JOINT RightHandRing2
										{
											OFFSET -5.62556 0.00000 0.00000
											CHANNELS 3 Zrotation Xrotation Yrotation
											JOINT RightHandRing3
											{
												OFFSET -3.56744 0.00000 0.00000
												CHANNELS 3 Zrotation Xrotation Yrotation
												End site
												{
													OFFSET 0.00000 0.00000 0.00000
												}
											}
										}
									}
									JOINT RightHandPinky1
									{
										OFFSET -11.11390 0.00000 -6.03719
										CHANNELS 3 Zrotation Xrotation Yrotation
										JOINT RightHandPinky2
										{
											OFFSET -4.52789 0.00000 0.00000
											CHANNELS 3 Zrotation Xrotation Yrotation
											JOINT RightHandPinky3
											{
												OFFSET -2.46976 0.00000 0.00000
												CHANNELS 3 Zrotation Xrotation Yrotation
												End site
												{
													OFFSET 0.00000 0.00000 0.00000
												}
											}
										}
									}
								}
							}
						}
					}
					JOINT LeftShoulder
					{
						OFFSET 0.01000 7.91373 5.19711
						CHANNELS 3 Zrotation Xrotation Yrotation
						JOINT LeftArm
						{
							OFFSET 18.41580 0.00000 0.00000
							CHANNELS 3 Zrotation Xrotation Yrotation
							JOINT LeftForeArm
							{
								OFFSET 29.11090 0.00000 0.00000
								CHANNELS 3 Zrotation Xrotation Yrotation
								JOINT LeftHand
								{
									OFFSET 24.65040 0.00000 0.00000
									CHANNELS 3 Zrotation Xrotation Yrotation
									JOINT LeftHandThumb1
									{
										OFFSET 5.35114 -0.85590 3.97906
										CHANNELS 3 Zrotation Xrotation Yrotation
										JOINT LeftHandThumb2
										{
											OFFSET 4.52789 0.00000 0.00000
											CHANNELS 3 Zrotation Xrotation Yrotation
											JOINT LeftHandThumb3
											{
												OFFSET 2.46977 0.00000 0.00000
												CHANNELS 3 Zrotation Xrotation Yrotation
												End site
												{
													OFFSET 0.00000 0.00000 0.00000
												}
											}
										}
									}
									JOINT LeftHandIndex1
									{
										OFFSET 14.26970 0.00000 2.88139
										CHANNELS 3 Zrotation Xrotation Yrotation
										JOINT LeftHandIndex2
										{
											OFFSET 5.48836 0.00000 0.00000
											CHANNELS 3 Zrotation Xrotation Yrotation
											JOINT LeftHandIndex3
											{
												OFFSET 3.01859 0.00000 0.00000
												CHANNELS 3 Zrotation Xrotation Yrotation
												End site
												{
													OFFSET 0.00000 0.00000 0.00000
												}
											}
										}
									}
									JOINT LeftHandMiddle1
									{
										OFFSET 14.26970 0.00000 -0.09147
										CHANNELS 3 Zrotation Xrotation Yrotation
										JOINT LeftHandMiddle2
										{
											OFFSET 6.17440 0.00000 0.00000
											CHANNELS 3 Zrotation Xrotation Yrotation
											JOINT LeftHandMiddle3
											{
												OFFSET 3.56744 0.00000 0.00000
												CHANNELS 3 Zrotation Xrotation Yrotation
												End site
												{
													OFFSET 0.00000 0.00000 0.00000
												}
											}
										}
									}
									JOINT LeftHandRing1
									{
										OFFSET 12.69180 0.00000 -3.06433
										CHANNELS 3 Zrotation Xrotation Yrotation
										JOINT LeftHandRing2
										{
											OFFSET 5.62556 0.00000 0.00000
											CHANNELS 3 Zrotation Xrotation Yrotation
											JOINT LeftHandRing3
											{
												OFFSET 3.56744 0.00000 0.00000
												CHANNELS 3 Zrotation Xrotation Yrotation
												End site
												{
													OFFSET 0.00000 0.00000 0.00000
												}
											}
										}
									}
									JOINT LeftHandPinky1
									{
										OFFSET 11.11390 0.00000 -6.03719
										CHANNELS 3 Zrotation Xrotation Yrotation
										JOINT LeftHandPinky2
										{
											OFFSET 4.52789 0.00000 0.00000
											CHANNELS 3 Zrotation Xrotation Yrotation
											JOINT LeftHandPinky3
											{
												OFFSET 2.46976 0.00000 0.00000
												CHANNELS 3 Zrotation Xrotation Yrotation
												End site
												{
													OFFSET 0.00000 0.00000 0.00000
												}
											}
										}
									}
								}
							}
						}
					}
					JOINT pCube4
					{
						OFFSET 0.00000 10.91090 1.10792
						CHANNELS 3 Zrotation Xrotation Yrotation
						End site
						{
							OFFSET 0.00000 0.00000 0.00000
						}
					}
				}
			}
		}
	}
	JOINT RightUpLeg
	{
		OFFSET -9.98441 0.00000 0.00000
		CHANNELS 3 Zrotation Xrotation Yrotation
		JOINT RightLeg
		{
			OFFSET 0.00000 -42.11790 0.00000
			CHANNELS 3 Zrotation Xrotation Yrotation
			JOINT RightFoot
			{
				OFFSET 0.00000 -45.00020 -0.00001
				CHANNELS 3 Zrotation Xrotation Yrotation
				JOINT RightForeFoot
				{
					OFFSET 0.00000 -3.74820 0.00000
					CHANNELS 3 Zrotation Xrotation Yrotation
					JOINT RightToeBase
					{
						OFFSET 0.00000 0.06325 14.43120
						CHANNELS 3 Zrotation Xrotation Yrotation
						End site
						{
							OFFSET 0.00000 0.00000 0.00000
						}
					}
				}
			}
		}
	}
	JOINT LeftUpLeg
	{
		OFFSET 9.98441 0.00000 0.00000
		CHANNELS 3 Zrotation Xrotation Yrotation
		JOINT LeftLeg
		{
			OFFSET 0.00000 -42.11800 0.00000
			CHANNELS 3 Zrotation Xrotation Yrotation
			JOINT LeftFoot
			{
				OFFSET 0.00000 -45.00070 0.00000
				CHANNELS 3 Zrotation Xrotation Yrotation
				JOINT LeftForeFoot
				{
					OFFSET 0.00000 -3.74824 0.00000
					CHANNELS 3 Zrotation Xrotation Yrotation
					JOINT LeftToeBase
					{
						OFFSET 0.00000 0.06325 14.43110
						CHANNELS 3 Zrotation Xrotation Yrotation
						End site
						{
							OFFSET 0.00000 0.00000 0.00000
						}
					}
				}
			}
		}
	}
}
MOTION
Frames: 4
Frame Time: 0.050000
0.02981148563491183 -0.0007724580772857227 0.0458437012254832 0.03918797024740831 0.022368946373808152 0.03396030066782054 4.075237252614633 4.4028755179803225 -1.8530110439642518 -0.9747059759698713 3.9063244448369696 0.40931906318137534 -0.5756505356703522 -1.0365999430314088 0.403965353468678 -0.5358552521560244 0.21748022664649502 -0.35451034760027367 -0.9459952409683281 13.826131003796531 1.278739950547846 0.2092648254661184 -0.9601582443642255 3.3097075038431654 0.07734080554822738 -17.87848748701207 0.23295430679430934 -8.255612422247184 3.020171655820771 -16.990600555897085 80.55179804647453 15.339955450163957 2.3738406946783117 -0.6268394730194738 5.979300771534455 55.189301096298415 14.312399399440803 -0.1549419691286053 -1.1388363300201492 4.577688384923269 -0.08528132948748116 -1.600826260925298 -0.03947751893354126 0.003902982669650703 -56.21949991122944 0.04130177504564209 0.008941222745621123 -56.255527032677215 -38.81292989376399 0.006447499986403559 -0.007191342400912389 -0.0471048475061902 0.034861841093459835 0.036141334400858524 0.01358044911630926 -0.007007701392954793 -0.03382057771308477 -36.68819774866337 0.008198644089121505 0.023617950123305687 -0.030237774469200555 -0.002645202461923571 0.015563514922329415 -0.017624954033037418 -0.020694831104807444 -0.004612661742776549 -19.777472795986412 0.010563659172072049 0.029492477399281267 0.030647208205802693 -0.03688346064929759 0.03007959399033099 -0.00667838789867009 -0.022633989517354156 0.0308056663246228 24.027030092195478 0.02228028530162053 0.02380596757299731 28.850979049202277 -0.0238097683508986 0.033164241023288105 28.865658904400547 0.031209267208486192 0.03796588705641938 10.416879900597454 2.4271405213812667 14.949591337753658 -72.85915676927411 25.58436386204202 -17.984449450413354 16.77567538907716 -6.773489432679092 -71.96130618961777 -7.099866069354099 1.124105312459549 -2.5915017885868554 -0.49512943515208757 0.06705107347471219 -8.130157481175516 -0.030924959245847764 -0.01996439653384223 44.57144938135743 -0.001230088516921371 0.0008407230278028331 44.59614824207647 12.439988955119752 0.02612505257954708 0.014034046335167699 -0.03637668418282017 -0.019178225925511005 -0.04909843948703536 0.017152268830566315 -0.04835427536067856 0.04426293586925642 11.099606401073473 -0.03244766484806642 0.021619078753179966 -0.0036125597837381187 -0.0013852933236788907 0.032210265250522375 -0.012092007442502457 -0.02842056190611308 -0.02174686248297801 4.814775374380845 -0.04819004755448051 -0.023745428081962477 0.008781890982167856 -0.03115923123930959 -0.04177593915352744 -0.005317860412708676 0.03656752145556186 0.021375265649402394 -5.565076278487319 0.022735214410492376 -0.0015145439650803352 -6.767664633181897 0.029961894252266325 -0.031001014639779428 -6.76081296193572 -0.01725330781935796 0.023118400038796512 0.022596296803507138 -0.0439571696315605 -0.00016647626207001885 8.089820748680907 3.500123314678729 -19.21276340899233 0.013200624903464832 10.402001110682564 0.06418282506390492 -5.603889826254411 -15.662173425312966 3.142745315550036 -0.03673459504798281 0.002192848552581875 0.04537915577404007 0.0020852199813219383 4.67427518863089 0.04278340858836363 12.45129412402124 -8.246800503473564 6.88313477258639 0.025689415284986007 46.40703493522554 0.021634768823083975 -4.309949010017403 -14.764173368483954 -3.8811873683662275 -0.038711021105301904 -0.0184350577487993 -0.02524684889949331 -0.039588944846959837 -10.739209063750506 -0.020305513437980236 
0.004057129284906875 0.008688453520033477 -0.02324844830985552 0.0021184077415994005 -0.013290049465325724 -0.03453674030225233 4.240583107866149 4.3395540807597275 -1.9122000855365018 -0.8795729810049451 3.8626573971954774 0.39853809544531943 -0.6686043140015611 -1.0719737426654847 0.43114775510445225 -0.4205074719253161 0.1760046788262033 -0.3382168907186495 -0.734890358868617 13.923178272123836 0.7013805117363286 0.26874631128684523 -0.9295220594130635 1.9608353968537613 0.3164692751222353 -17.88673041923956 0.12049088467235235 -8.510775868281884 3.0112873572375793 -17.127611193634316 80.6537347657606 15.395276864607467 2.265522366069576 -0.5123739747434951 5.685744254968533 54.481392811534576 14.393117050723317 -0.20162788514140073 -0.9525574426740431 4.554945534069695 -0.09332647010303552 -1.5694096738250038 -0.014832214067442383 0.04823480688096722 -56.27929773038869 -0.04329275694460777 0.04006842227379939 -56.26964597162742 -38.8087286350289 0.022602326899585308 0.03457429748426672 0.045335346168676356 -0.02068009172402708 0.00462433749494394 0.012424117651198469 0.010163460514667669 0.022189734253103048 -36.734906078601554 -0.0028331456801123055 0.010305361774559764 0.016102239377667096 -0.025278015797981283 0.045322938971117124 0.043101595306176986 -0.031151972972536086 0.04679289876117421 -19.778385154787507 -0.027340608693386587 -0.033597987840744276 -0.026552221561974076 -0.020548006163102806 0.0342644020883426 0.019728834222313845 -0.00013738822326907644 0.04943225632979708 24.0439413409632 0.008306772866541504 0.0401843594449582 28.82796696366495 -0.014252806948666378 -0.030845971554747893 28.87646597183201 0.002860676042740236 -0.020024033209967557 10.271798741703442 2.334321210820606 14.975880393968378 -72.83332341869874 26.39635147269363 -16.84610743524291 17.741552054590084 -8.283559783458418 -73.70127938550856 -6.200541412098546 1.5790094379581254 -3.811214847686846 -0.44431343310638755 0.09790882953768273 -8.094527432759774 0.010637072650929278 -0.0001646255357596084 44.55441982847868 0.016233946145513253 0.0007006309180672402 44.560753433521164 12.439084426183957 0.02117975524123787 0.016844094751691577 -0.04999259206976333 0.015879865270368655 -0.04163646464253149 -0.039139358502624275 0.005271061477409513 -0.013120310538816063 11.085078068272509 -0.019805455980409798 0.012122557576296737 -0.046508753986166176 0.012972018801161653 -0.027525211594391558 -0.028985622736707618 7.899270292528682e-05 -0.026060099070734578 4.782471293837055 0.021871412945621452 0.046051326351599677 0.004718369923178047 0.04325892010931239 -0.027619762692074484 0.027427397671880346 -0.04457461268512375 0.022123132820593177 -5.578118857187358 -0.016348737912414153 0.004711936501647466 -6.692081887398481 -0.023539591349907445 -0.048201940158959344 -6.722952447288183 0.012849996739308768 0.008818834607639919 -0.0021208860347953747 -0.01566641177294218 0.04858839119478873 8.01494573113452 3.466630638866659 -19.257068847072805 -0.019672686452713875 10.396881314589844 0.051682906724286354 -5.6404971680999765 -15.701868569707475 3.1965232795312644 -0.011843902193512652 0.00297168637471232 0.0039017669195173473 0.035345148400625706 4.714049382220157 -0.03563922105499605 12.42757089229391 -8.242975856294377 6.847456945104123 0.026189161440112137 46.414266728982106 -0.0006384297262252592 -4.279032748735269 -14.77377696262177 -3.7995815072903194 0.022704658777833116 0.026392395857632967 0.045405924048576546 0.0027473247425785293 -10.714929114965834 -0.04172405943650864 
-0.04166096210501935 0.002472761898735195 -0.02253299053219522 -0.01882234611953064 -0.037463552986246575 -0.030049202682339668 4.403049483939299 4.194272173176387 -1.8745262417647695 -0.9372125255029801 3.916309178611319 0.38630466080687764 -0.6592395137591955 -1.086337887236662 0.4297032455621247 -0.23405094181800642 0.18363139123132302 -0.33349640832240185 -0.5629296141237954 13.886578950484282 0.11104017368878051 0.35645428884070696 -0.9161444754934505 0.536644127547787 0.6188852980967507 -17.962306628484615 -0.026929443261212715 -8.680088899545323 2.982631449315216 -17.272504207654027 80.949581637609 15.315805395506215 2.0005748512298434 -0.3318871682666031 5.581633852511458 53.48047336392967 14.630933674763448 -0.1664574550782537 -0.6990266163746364 4.5268834292367055 -0.11200128004810751 -1.6037615592570278 0.049017796863243535 -0.04640485033570302 -56.259702301102074 0.011860680425927207 -0.013893222973746129 -56.22747421323492 -38.806164918741864 0.0175308499249611 0.010063830292715875 0.03318330161571247 0.0055099192433573085 0.011744869803887233 -0.04414886557406118 0.025556260130652642 -0.04017019778136421 -36.65119495945002 -0.011357551409789814 0.04029314035072162 -0.02340980354183541 0.049439892297843104 -0.03269571487003068 0.031161827676475136 -0.03113030154201051 0.02445128074606105 -19.75304683516992 0.014906537180822209 -0.030803529248335064 0.04004980355223226 0.049897952273640266 -0.027111934829031827 0.01301014165833902 -0.006428201841254091 -0.018121058079316726 24.086778868847244 0.008479273691959503 0.013479937562421622 28.87639643458613 0.0026838547484017918 0.009427342954323337 28.864233229014737 -0.03145237998613402 0.04554138814737927 10.056642203745639 2.3111609361788874 14.93739125144246 -72.97462626265157 27.12925492297308 -15.815966758756622 18.204557996692508 -8.990707062961567 -75.58418835481982 -5.54301227202898 2.080693854007566 -5.042036440109921 -0.4324387209345263 0.05009978985332422 -8.10707502746633 -0.013242458773006439 -0.0059238335627826025 44.580127112081016 -0.039369255644969216 -0.02309667995784203 44.59011216371412 12.43948238412885 -0.014939560357924778 0.0003489089973680372 -0.009776923996880476 0.005343565990147979 0.034768984108897644 -0.014405166111584777 0.044274195981254275 0.00902284036069294 11.145185577145503 -0.023418103142575728 -0.01859847661594686 -0.016800003530224497 0.01645108639900287 -0.014909965408817963 0.023498807565240157 0.0009842912001732024 0.04679778522972517 4.765666174676575 0.002139518822833441 -0.018223699855502193 -0.04289365479888519 -0.0183440284035027 0.0027602381924881573 -0.02483716484582194 -0.03943301087367029 -0.042077850745212045 -5.590723548295231 -0.01971632045757403 -0.001955907442951812 -6.724968064008721 0.029496623020240965 0.0265644100830319 -6.677572541475273 -0.04415470546262371 0.038230105835739395 -0.033351270720010685 -0.020967763098181727 0.03463282107350183 8.07410948817113 3.5415953031229686 -19.24420776504168 0.011353852660297347 10.35745146993767 -0.03560231297288492 -5.585079147279489 -15.63310176250029 3.22346182070696 0.02420761848849983 0.010579670415759551 0.019114170169819193 -0.010339358731152812 4.6638059698698004 -0.032534571991977825 12.443491669673202 -8.254637523248977 6.8944611802838045 0.017847419963633298 46.371851710979776 0.02423775887578914 -4.298662846585879 -14.783750613800741 -3.854950967837924 -0.016525317692986343 0.03086556466432488 -0.041333139125418784 -0.04422588408421925 -10.728377116368632 -0.03843659169521398 
0.017063025518607867 0.036306883857375565 0.03671225135166092 -0.02887453719428358 -0.015770965616972908 -0.04305002475062213 4.6536847180875265 4.114168111851371 -1.9631511684819782 -0.8519365570629366 3.9121019789612133 0.3832541957282119 -0.6674530236914431 -1.111587847844679 0.4756274556389493 -0.14057106871995112 0.17212118313311536 -0.3909384055586581 -0.32577876329373856 13.928919412276759 -0.5096582081794375 0.3422459463686315 -1.0465350398945223 -0.653846112136515 0.7714471391770473 -18.0990766991683 -0.11597242043586375 -8.787706526927598 3.0511006877388334 -17.481424078282025 81.21440910053613 14.767667095303434 1.7628775857978736 -0.22717224291172947 5.488572285106476 52.33090756080467 14.740331498745691 -0.14834653879951387 -0.5015946065236507 4.543867233914299 -0.10579054054591797 -1.6064970926568827 0.0032457790441477864 -0.027159224695554304 -56.21198531904081 -0.007560468351628593 -0.011047464273535002 -56.2416955023245 -38.7589472466723 -0.002728394432884086 0.0034796063289370674 0.007246301870158482 -0.018423416939653634 0.024301602310751017 0.035446186664262025 0.036225515029019134 -0.021782748360958896 -36.74081215269734 -0.021278486982100508 -0.04766829269665396 0.005509854083960035 -0.04604759317203504 -0.03158907898386705 -0.031832863390004976 -0.01996458477536089 0.008017620961138906 -19.798359807264436 0.04968871761455678 -0.02109575986753095 0.04279369351697661 -0.049011395464031444 0.02315366139621278 0.013425442991802544 -0.004499357870794835 0.006032400008967562 24.095330799673672 -0.03137059450971821 -0.019143524574851755 28.864055037229114 -0.02864889464426965 -0.0037253320081529484 28.850371284624497 -0.0010308047519928213 -0.021658457753487778 9.905213361284272 2.3603757377243135 14.996072902174923 -73.14644761996163 27.505687561666434 -14.904771957328363 17.795415403124895 -9.152150220890682 -76.28249616705722 -5.4814759166086295 2.4024914002764883 -5.889682331736094 -0.4291506239774926 0.10450534643933655 -8.085015978221282 -0.032525488742820276 -0.03153432658952867 44.59944652954707 0.034641239573698586 -0.010212577534619082 44.6079216228561 12.472109239782748 0.036512242184424205 0.03635054710402986 0.028530024851609263 -5.529359194773861e-05 -0.009205104226638675 0.03913833223565814 0.03936564366191602 0.031491583989438604 11.1156506348087 0.03104123300774209 0.030960747167187205 0.03468053591226149 -0.022154176797485485 -0.007479491769462045 -0.03537852371163115 0.008226527954032383 -0.04036902302392506 4.793457177653854 0.005046172780278291 0.005096113068412441 -0.008726788354840132 0.03758524855524835 -0.0255837159685992 -0.009739496861820414 0.001556312413300959 -0.007949035171546673 -5.595420803344519 -0.006973801431007892 -0.021258719573827755 -6.699860569645893 -0.04522511113251687 0.006772978704455288 -6.720943030130814 0.02674693263980418 -0.00563804174335114 -0.006617763210733644 -0.04648018420237484 0.03604359368367932 8.003187961725004 3.5253062771022097 -19.179064904302262 0.007178562338350944 10.418810644916132 -0.004347081842625184 -5.603928316001825 -15.617420497939207 3.201947042685413 0.041044321904593596 0.02665752604627736 -0.030141604704756634 0.013494697138631922 4.728150938927009 0.014091735378764313 12.438581509281548 -8.261834747245967 6.866644283536671 -0.020206524115297435 46.354001452438716 -0.03301410974347914 -4.278323880955608 -14.741096815064365 -3.831390275078592 -0.04126965939672619 -0.008250461787205355 -0.01551162005424021 0.008322311400136157 -10.764048125153833 -0.017255187981289916 
